# iron_dagger: baked by artforge.meshbake from art/blockbench
mtllib iron_dagger.mtl
o handle
v 0.131038 0.095613 0.525049
v 0.119809 0.106843 0.534218
v 0.113326 0.113326 0.500000
v 0.119809 0.106843 0.534218
v 0.131038 0.095613 0.525049
v 0.341887 0.306462 0.525049
v 0.330657 0.317691 0.534218
v 0.330657 0.317691 0.534218
v 0.341887 0.306462 0.525049
v 0.324174 0.324174 0.500000
v 0.137522 0.089130 0.509169
v 0.131038 0.095613 0.525049
v 0.113326 0.113326 0.500000
v 0.131038 0.095613 0.525049
v 0.137522 0.089130 0.509169
v 0.348370 0.299978 0.509169
v 0.341887 0.306462 0.525049
v 0.341887 0.306462 0.525049
v 0.348370 0.299978 0.509169
v 0.324174 0.324174 0.500000
v 0.137522 0.089130 0.490831
v 0.137522 0.089130 0.509169
v 0.113326 0.113326 0.500000
v 0.137522 0.089130 0.509169
v 0.137522 0.089130 0.490831
v 0.348370 0.299978 0.490831
v 0.348370 0.299978 0.509169
v 0.348370 0.299978 0.509169
v 0.348370 0.299978 0.490831
v 0.324174 0.324174 0.500000
v 0.131038 0.095613 0.474951
v 0.137522 0.089130 0.490831
v 0.113326 0.113326 0.500000
v 0.137522 0.089130 0.490831
v 0.131038 0.095613 0.474951
v 0.341887 0.306462 0.474951
v 0.348370 0.299978 0.490831
v 0.348370 0.299978 0.490831
v 0.341887 0.306462 0.474951
v 0.324174 0.324174 0.500000
v 0.119809 0.106843 0.465782
v 0.131038 0.095613 0.474951
v 0.113326 0.113326 0.500000
v 0.131038 0.095613 0.474951
v 0.119809 0.106843 0.465782
v 0.330657 0.317691 0.465782
v 0.341887 0.306462 0.474951
v 0.341887 0.306462 0.474951
v 0.330657 0.317691 0.465782
v 0.324174 0.324174 0.500000
v 0.106843 0.119809 0.465782
v 0.119809 0.106843 0.465782
v 0.113326 0.113326 0.500000
v 0.119809 0.106843 0.465782
v 0.106843 0.119809 0.465782
v 0.317691 0.330657 0.465782
v 0.330657 0.317691 0.465782
v 0.330657 0.317691 0.465782
v 0.317691 0.330657 0.465782
v 0.324174 0.324174 0.500000
v 0.095613 0.131038 0.474951
v 0.106843 0.119809 0.465782
v 0.113326 0.113326 0.500000
v 0.106843 0.119809 0.465782
v 0.095613 0.131038 0.474951
v 0.306462 0.341887 0.474951
v 0.317691 0.330657 0.465782
v 0.317691 0.330657 0.465782
v 0.306462 0.341887 0.474951
v 0.324174 0.324174 0.500000
v 0.089130 0.137522 0.490831
v 0.095613 0.131038 0.474951
v 0.113326 0.113326 0.500000
v 0.095613 0.131038 0.474951
v 0.089130 0.137522 0.490831
v 0.299978 0.348370 0.490831
v 0.306462 0.341887 0.474951
v 0.306462 0.341887 0.474951
v 0.299978 0.348370 0.490831
v 0.324174 0.324174 0.500000
v 0.089130 0.137522 0.509169
v 0.089130 0.137522 0.490831
v 0.113326 0.113326 0.500000
v 0.089130 0.137522 0.490831
v 0.089130 0.137522 0.509169
v 0.299978 0.348370 0.509169
v 0.299978 0.348370 0.490831
v 0.299978 0.348370 0.490831
v 0.299978 0.348370 0.509169
v 0.324174 0.324174 0.500000
v 0.095613 0.131038 0.525049
v 0.089130 0.137522 0.509169
v 0.113326 0.113326 0.500000
v 0.089130 0.137522 0.509169
v 0.095613 0.131038 0.525049
v 0.306462 0.341887 0.525049
v 0.299978 0.348370 0.509169
v 0.299978 0.348370 0.509169
v 0.306462 0.341887 0.525049
v 0.324174 0.324174 0.500000
v 0.106843 0.119809 0.534218
v 0.095613 0.131038 0.525049
v 0.113326 0.113326 0.500000
v 0.095613 0.131038 0.525049
v 0.106843 0.119809 0.534218
v 0.317691 0.330657 0.534218
v 0.306462 0.341887 0.525049
v 0.306462 0.341887 0.525049
v 0.317691 0.330657 0.534218
v 0.324174 0.324174 0.500000
v 0.119809 0.106843 0.534218
v 0.106843 0.119809 0.534218
v 0.113326 0.113326 0.500000
v 0.106843 0.119809 0.534218
v 0.119809 0.106843 0.534218
v 0.330657 0.317691 0.534218
v 0.317691 0.330657 0.534218
v 0.317691 0.330657 0.534218
v 0.330657 0.317691 0.534218
v 0.324174 0.324174 0.500000
vt 0.384923 0.440708
vt 0.463633 0.506731
vt 0.509076 0.260330
vt 0.803139 0.014011
vt 0.724430 0.014011
vt 0.724430 0.506785
vt 0.803139 0.506785
vt 0.124126 0.999990
vt 0.045417 0.933967
vt 0.169569 0.753590
vt 0.339480 0.326353
vt 0.384923 0.440708
vt 0.509076 0.260330
vt 0.384923 0.507270
vt 0.463633 0.507270
vt 0.463633 1.000045
vt 0.384923 1.000045
vt 0.045417 0.933967
vt -0.000026 0.819613
vt 0.169569 0.753590
vt 0.339480 0.194307
vt 0.339480 0.326353
vt 0.509076 0.260330
vt 0.463633 0.507270
vt 0.554519 0.507270
vt 0.554519 1.000045
vt 0.463633 1.000045
vt -0.000026 0.819613
vt -0.000026 0.687567
vt 0.169569 0.753590
vt 0.384923 0.079953
vt 0.339480 0.194307
vt 0.509076 0.260330
vt 0.554519 0.507270
vt 0.633228 0.507270
vt 0.633228 1.000045
vt 0.554519 1.000045
vt -0.000026 0.687567
vt 0.045417 0.573212
vt 0.169569 0.753590
vt 0.463633 0.013930
vt 0.384923 0.079953
vt 0.509076 0.260330
vt 0.045417 0.014011
vt 0.124126 0.014011
vt 0.124126 0.506785
vt 0.045417 0.506785
vt 0.045417 0.573212
vt 0.124126 0.507189
vt 0.169569 0.753590
vt 0.554519 0.013930
vt 0.463633 0.013930
vt 0.509076 0.260330
vt 0.124126 0.014011
vt 0.215012 0.014011
vt 0.215012 0.506785
vt 0.124126 0.506785
vt 0.124126 0.507189
vt 0.215012 0.507189
vt 0.169569 0.753590
vt 0.633228 0.079953
vt 0.554519 0.013930
vt 0.509076 0.260330
vt 0.215012 0.014011
vt 0.293722 0.014011
vt 0.293722 0.506785
vt 0.215012 0.506785
vt 0.215012 0.507189
vt 0.293722 0.573212
vt 0.169569 0.753590
vt 0.678671 0.194307
vt 0.633228 0.079953
vt 0.509076 0.260330
vt 0.972735 0.507270
vt 0.894025 0.507270
vt 0.894025 1.000045
vt 0.972735 1.000045
vt 0.293722 0.573212
vt 0.339165 0.687567
vt 0.169569 0.753590
vt 0.678671 0.326353
vt 0.678671 0.194307
vt 0.509076 0.260330
vt 0.894025 0.507270
vt 0.803139 0.507270
vt 0.803139 1.000045
vt 0.894025 1.000045
vt 0.339165 0.687567
vt 0.339165 0.819613
vt 0.169569 0.753590
vt 0.633228 0.440708
vt 0.678671 0.326353
vt 0.509076 0.260330
vt 0.803139 0.507270
vt 0.724430 0.507270
vt 0.724430 1.000045
vt 0.803139 1.000045
vt 0.339165 0.819613
vt 0.293722 0.933967
vt 0.169569 0.753590
vt 0.554519 0.506731
vt 0.633228 0.440708
vt 0.509076 0.260330
vt 0.972735 0.014011
vt 0.894025 0.014011
vt 0.894025 0.506785
vt 0.972735 0.506785
vt 0.293722 0.933967
vt 0.215012 0.999990
vt 0.169569 0.753590
vt 0.463633 0.506731
vt 0.554519 0.506731
vt 0.509076 0.260330
vt 0.894025 0.014011
vt 0.803139 0.014011
vt 0.803139 0.506785
vt 0.894025 0.506785
vt 0.215012 0.999990
vt 0.124126 0.999990
vt 0.169569 0.753590
vn -0.707107 -0.707107 0.000000
vn -0.707107 -0.707107 0.000000
vn -0.707107 -0.707107 0.000000
vn 0.353553 -0.353553 0.866025
vn 0.353553 -0.353553 0.866025
vn 0.353553 -0.353553 0.866025
vn 0.353553 -0.353553 0.866025
vn 0.707107 0.707107 0.000000
vn 0.707107 0.707107 0.000000
vn 0.707107 0.707107 0.000000
vn -0.707107 -0.707107 0.000000
vn -0.707107 -0.707107 0.000000
vn -0.707107 -0.707107 0.000000
vn 0.612372 -0.612372 0.500000
vn 0.612372 -0.612372 0.500000
vn 0.612372 -0.612372 0.500000
vn 0.612372 -0.612372 0.500000
vn 0.707107 0.707107 0.000000
vn 0.707107 0.707107 0.000000
vn 0.707107 0.707107 0.000000
vn -0.707107 -0.707107 0.000000
vn -0.707107 -0.707107 0.000000
vn -0.707107 -0.707107 0.000000
vn 0.707107 -0.707107 0.000000
vn 0.707107 -0.707107 0.000000
vn 0.707107 -0.707107 0.000000
vn 0.707107 -0.707107 0.000000
vn 0.707107 0.707107 0.000000
vn 0.707107 0.707107 0.000000
vn 0.707107 0.707107 0.000000
vn -0.707107 -0.707107 0.000000
vn -0.707107 -0.707107 0.000000
vn -0.707107 -0.707107 0.000000
vn 0.612372 -0.612372 -0.500000
vn 0.612372 -0.612372 -0.500000
vn 0.612372 -0.612372 -0.500000
vn 0.612372 -0.612372 -0.500000
vn 0.707107 0.707107 0.000000
vn 0.707107 0.707107 0.000000
vn 0.707107 0.707107 0.000000
vn -0.707107 -0.707107 0.000000
vn -0.707107 -0.707107 0.000000
vn -0.707107 -0.707107 0.000000
vn 0.353553 -0.353553 -0.866025
vn 0.353553 -0.353553 -0.866025
vn 0.353553 -0.353553 -0.866025
vn 0.353553 -0.353553 -0.866025
vn 0.707107 0.707107 0.000000
vn 0.707107 0.707107 0.000000
vn 0.707107 0.707107 0.000000
vn -0.707107 -0.707107 0.000000
vn -0.707107 -0.707107 0.000000
vn -0.707107 -0.707107 0.000000
vn 0.000000 -0.000000 -1.000000
vn 0.000000 -0.000000 -1.000000
vn 0.000000 -0.000000 -1.000000
vn 0.000000 -0.000000 -1.000000
vn 0.707107 0.707107 0.000000
vn 0.707107 0.707107 0.000000
vn 0.707107 0.707107 0.000000
vn -0.707107 -0.707107 0.000000
vn -0.707107 -0.707107 0.000000
vn -0.707107 -0.707107 0.000000
vn -0.353553 0.353553 -0.866025
vn -0.353553 0.353553 -0.866025
vn -0.353553 0.353553 -0.866025
vn -0.353553 0.353553 -0.866025
vn 0.707107 0.707107 0.000000
vn 0.707107 0.707107 0.000000
vn 0.707107 0.707107 0.000000
vn -0.707107 -0.707107 0.000000
vn -0.707107 -0.707107 0.000000
vn -0.707107 -0.707107 0.000000
vn -0.612372 0.612372 -0.500000
vn -0.612372 0.612372 -0.500000
vn -0.612372 0.612372 -0.500000
vn -0.612372 0.612372 -0.500000
vn 0.707107 0.707107 0.000000
vn 0.707107 0.707107 0.000000
vn 0.707107 0.707107 0.000000
vn -0.707107 -0.707107 0.000000
vn -0.707107 -0.707107 0.000000
vn -0.707107 -0.707107 0.000000
vn -0.707107 0.707107 -0.000000
vn -0.707107 0.707107 -0.000000
vn -0.707107 0.707107 -0.000000
vn -0.707107 0.707107 -0.000000
vn 0.707107 0.707107 0.000000
vn 0.707107 0.707107 0.000000
vn 0.707107 0.707107 0.000000
vn -0.707107 -0.707107 0.000000
vn -0.707107 -0.707107 0.000000
vn -0.707107 -0.707107 0.000000
vn -0.612372 0.612372 0.500000
vn -0.612372 0.612372 0.500000
vn -0.612372 0.612372 0.500000
vn -0.612372 0.612372 0.500000
vn 0.707107 0.707107 0.000000
vn 0.707107 0.707107 0.000000
vn 0.707107 0.707107 0.000000
vn -0.707107 -0.707107 0.000000
vn -0.707107 -0.707107 0.000000
vn -0.707107 -0.707107 0.000000
vn -0.353553 0.353553 0.866025
vn -0.353553 0.353553 0.866025
vn -0.353553 0.353553 0.866025
vn -0.353553 0.353553 0.866025
vn 0.707107 0.707107 0.000000
vn 0.707107 0.707107 0.000000
vn 0.707107 0.707107 0.000000
vn -0.707107 -0.707107 0.000000
vn -0.707107 -0.707107 0.000000
vn -0.707107 -0.707107 0.000000
vn 0.000000 0.000000 1.000000
vn 0.000000 0.000000 1.000000
vn 0.000000 0.000000 1.000000
vn 0.000000 0.000000 1.000000
vn 0.707107 0.707107 0.000000
vn 0.707107 0.707107 0.000000
vn 0.707107 0.707107 0.000000
usemtl m0
f 1/1/1 2/2/2 3/3/3
f 4/4/4 5/5/5 6/6/6
f 4/4/4 6/6/6 7/7/7
f 8/8/8 9/9/9 10/10/10
f 11/11/11 12/12/12 13/13/13
f 14/14/14 15/15/15 16/16/16
f 14/14/14 16/16/16 17/17/17
f 18/18/18 19/19/19 20/20/20
f 21/21/21 22/22/22 23/23/23
f 24/24/24 25/25/25 26/26/26
f 24/24/24 26/26/26 27/27/27
f 28/28/28 29/29/29 30/30/30
f 31/31/31 32/32/32 33/33/33
f 34/34/34 35/35/35 36/36/36
f 34/34/34 36/36/36 37/37/37
f 38/38/38 39/39/39 40/40/40
f 41/41/41 42/42/42 43/43/43
f 44/44/44 45/45/45 46/46/46
f 44/44/44 46/46/46 47/47/47
f 48/48/48 49/49/49 50/50/50
f 51/51/51 52/52/52 53/53/53
f 54/54/54 55/55/55 56/56/56
f 54/54/54 56/56/56 57/57/57
f 58/58/58 59/59/59 60/60/60
f 61/61/61 62/62/62 63/63/63
f 64/64/64 65/65/65 66/66/66
f 64/64/64 66/66/66 67/67/67
f 68/68/68 69/69/69 70/70/70
f 71/71/71 72/72/72 73/73/73
f 74/74/74 75/75/75 76/76/76
f 74/74/74 76/76/76 77/77/77
f 78/78/78 79/79/79 80/80/80
f 81/81/81 82/82/82 83/83/83
f 84/84/84 85/85/85 86/86/86
f 84/84/84 86/86/86 87/87/87
f 88/88/88 89/89/89 90/90/90
f 91/91/91 92/92/92 93/93/93
f 94/94/94 95/95/95 96/96/96
f 94/94/94 96/96/96 97/97/97
f 98/98/98 99/99/99 100/100/100
f 101/101/101 102/102/102 103/103/103
f 104/104/104 105/105/105 106/106/106
f 104/104/104 106/106/106 107/107/107
f 108/108/108 109/109/109 110/110/110
f 111/111/111 112/112/112 113/113/113
f 114/114/114 115/115/115 116/116/116
f 114/114/114 116/116/116 117/117/117
f 118/118/118 119/119/119 120/120/120
o pommel
v 0.125730 0.080183 0.532206
v 0.111292 0.094621 0.543994
v 0.102956 0.102956 0.500000
v 0.111292 0.094621 0.543994
v 0.125730 0.080183 0.532206
v 0.139556 0.094009 0.532206
v 0.125118 0.108447 0.543994
v 0.127648 0.112830 0.539106
v 0.140482 0.099996 0.528628
v 0.120239 0.120239 0.500000
v 0.134065 0.071848 0.511788
v 0.125730 0.080183 0.532206
v 0.102956 0.102956 0.500000
v 0.125730 0.080183 0.532206
v 0.134065 0.071848 0.511788
v 0.147891 0.085674 0.511788
v 0.139556 0.094009 0.532206
v 0.140482 0.099996 0.528628
v 0.147891 0.092587 0.510478
v 0.120239 0.120239 0.500000
v 0.134065 0.071848 0.488212
v 0.134065 0.071848 0.511788
v 0.102956 0.102956 0.500000
v 0.134065 0.071848 0.511788
v 0.134065 0.071848 0.488212
v 0.147891 0.085674 0.488212
v 0.147891 0.085674 0.511788
v 0.147891 0.092587 0.510478
v 0.147891 0.092587 0.489522
v 0.120239 0.120239 0.500000
v 0.125730 0.080183 0.467794
v 0.134065 0.071848 0.488212
v 0.102956 0.102956 0.500000
v 0.134065 0.071848 0.488212
v 0.125730 0.080183 0.467794
v 0.139556 0.094009 0.467794
v 0.147891 0.085674 0.488212
v 0.147891 0.092587 0.489522
v 0.140482 0.099996 0.471372
v 0.120239 0.120239 0.500000
v 0.111292 0.094621 0.456006
v 0.125730 0.080183 0.467794
v 0.102956 0.102956 0.500000
v 0.125730 0.080183 0.467794
v 0.111292 0.094621 0.456006
v 0.125118 0.108447 0.456006
v 0.139556 0.094009 0.467794
v 0.140482 0.099996 0.471372
v 0.127648 0.112830 0.460894
v 0.120239 0.120239 0.500000
v 0.094621 0.111292 0.456006
v 0.111292 0.094621 0.456006
v 0.102956 0.102956 0.500000
v 0.111292 0.094621 0.456006
v 0.094621 0.111292 0.456006
v 0.108447 0.125118 0.456006
v 0.125118 0.108447 0.456006
v 0.127648 0.112830 0.460894
v 0.112830 0.127648 0.460894
v 0.120239 0.120239 0.500000
v 0.080183 0.125730 0.467794
v 0.094621 0.111292 0.456006
v 0.102956 0.102956 0.500000
v 0.094621 0.111292 0.456006
v 0.080183 0.125730 0.467794
v 0.094009 0.139556 0.467794
v 0.108447 0.125118 0.456006
v 0.112830 0.127648 0.460894
v 0.099996 0.140482 0.471372
v 0.120239 0.120239 0.500000
v 0.071848 0.134065 0.488212
v 0.080183 0.125730 0.467794
v 0.102956 0.102956 0.500000
v 0.080183 0.125730 0.467794
v 0.071848 0.134065 0.488212
v 0.085674 0.147891 0.488212
v 0.094009 0.139556 0.467794
v 0.099996 0.140482 0.471372
v 0.092587 0.147891 0.489522
v 0.120239 0.120239 0.500000
v 0.071848 0.134065 0.511788
v 0.071848 0.134065 0.488212
v 0.102956 0.102956 0.500000
v 0.071848 0.134065 0.488212
v 0.071848 0.134065 0.511788
v 0.085674 0.147891 0.511788
v 0.085674 0.147891 0.488212
v 0.092587 0.147891 0.489522
v 0.092587 0.147891 0.510478
v 0.120239 0.120239 0.500000
v 0.080183 0.125730 0.532206
v 0.071848 0.134065 0.511788
v 0.102956 0.102956 0.500000
v 0.071848 0.134065 0.511788
v 0.080183 0.125730 0.532206
v 0.094009 0.139556 0.532206
v 0.085674 0.147891 0.511788
v 0.092587 0.147891 0.510478
v 0.099996 0.140482 0.528628
v 0.120239 0.120239 0.500000
v 0.094621 0.111292 0.543994
v 0.080183 0.125730 0.532206
v 0.102956 0.102956 0.500000
v 0.080183 0.125730 0.532206
v 0.094621 0.111292 0.543994
v 0.108447 0.125118 0.543994
v 0.094009 0.139556 0.532206
v 0.099996 0.140482 0.528628
v 0.112830 0.127648 0.539106
v 0.120239 0.120239 0.500000
v 0.111292 0.094621 0.543994
v 0.094621 0.111292 0.543994
v 0.102956 0.102956 0.500000
v 0.094621 0.111292 0.543994
v 0.111292 0.094621 0.543994
v 0.125118 0.108447 0.543994
v 0.108447 0.125118 0.543994
v 0.112830 0.127648 0.539106
v 0.127648 0.112830 0.539106
v 0.120239 0.120239 0.500000
v 0.127648 0.112830 0.460894
v 0.140482 0.099996 0.471372
v 0.139556 0.094009 0.467794
v 0.125118 0.108447 0.456006
v 0.112830 0.127648 0.460894
v 0.127648 0.112830 0.460894
v 0.125118 0.108447 0.456006
v 0.108447 0.125118 0.456006
v 0.099996 0.140482 0.471372
v 0.112830 0.127648 0.460894
v 0.108447 0.125118 0.456006
v 0.094009 0.139556 0.467794
v 0.092587 0.147891 0.489522
v 0.099996 0.140482 0.471372
v 0.094009 0.139556 0.467794
v 0.085674 0.147891 0.488212
v 0.092587 0.147891 0.510478
v 0.092587 0.147891 0.489522
v 0.085674 0.147891 0.488212
v 0.085674 0.147891 0.511788
v 0.099996 0.140482 0.528628
v 0.092587 0.147891 0.510478
v 0.085674 0.147891 0.511788
v 0.094009 0.139556 0.532206
v 0.112830 0.127648 0.539106
v 0.099996 0.140482 0.528628
v 0.094009 0.139556 0.532206
v 0.108447 0.125118 0.543994
v 0.127648 0.112830 0.539106
v 0.112830 0.127648 0.539106
v 0.108447 0.125118 0.543994
v 0.125118 0.108447 0.543994
v 0.140482 0.099996 0.528628
v 0.127648 0.112830 0.539106
v 0.125118 0.108447 0.543994
v 0.139556 0.094009 0.532206
v 0.147891 0.092587 0.510478
v 0.140482 0.099996 0.528628
v 0.139556 0.094009 0.532206
v 0.147891 0.085674 0.511788
v 0.147891 0.092587 0.489522
v 0.147891 0.092587 0.510478
v 0.147891 0.085674 0.511788
v 0.147891 0.085674 0.488212
v 0.140482 0.099996 0.471372
v 0.147891 0.092587 0.489522
v 0.147891 0.085674 0.488212
v 0.139556 0.094009 0.467794
vt 0.384918 0.440808
vt 0.463627 0.506823
vt 0.509069 0.260451
vt 0.803134 0.013866
vt 0.724426 0.013866
vt 0.724426 0.408118
vt 0.803134 0.408118
vt 0.129168 0.972657
vt 0.059205 0.913977
vt 0.169562 0.753660
vt 0.339476 0.326466
vt 0.384918 0.440808
vt 0.509069 0.260451
vt 0.384918 0.507075
vt 0.463627 0.507075
vt 0.463627 0.901326
vt 0.384918 0.901326
vt 0.059205 0.913977
vt 0.018812 0.812340
vt 0.169562 0.753660
vt 0.339476 0.194436
vt 0.339476 0.326466
vt 0.509069 0.260451
vt 0.463627 0.507075
vt 0.554512 0.507075
vt 0.554512 0.901326
vt 0.463627 0.901326
vt 0.018812 0.812340
vt 0.018812 0.694980
vt 0.169562 0.753660
vt 0.384918 0.080095
vt 0.339476 0.194436
vt 0.509069 0.260451
vt 0.554512 0.507075
vt 0.633220 0.507075
vt 0.633220 0.901326
vt 0.554512 0.901326
vt 0.018812 0.694980
vt 0.059205 0.593343
vt 0.169562 0.753660
vt 0.463627 0.014080
vt 0.384918 0.080095
vt 0.509069 0.260451
vt 0.045411 0.013866
vt 0.124119 0.013866
vt 0.124119 0.408118
vt 0.045411 0.408118
vt 0.059205 0.593343
vt 0.129168 0.534663
vt 0.169562 0.753660
vt 0.554512 0.014080
vt 0.463627 0.014080
vt 0.509069 0.260451
vt 0.124119 0.013866
vt 0.215004 0.013866
vt 0.215004 0.408118
vt 0.124119 0.408118
vt 0.129168 0.534663
vt 0.209955 0.534663
vt 0.169562 0.753660
vt 0.633220 0.080095
vt 0.554512 0.014080
vt 0.509069 0.260451
vt 0.215004 0.013866
vt 0.293713 0.013866
vt 0.293713 0.408118
vt 0.215004 0.408118
vt 0.209955 0.534663
vt 0.279918 0.593343
vt 0.169562 0.753660
vt 0.678663 0.194436
vt 0.633220 0.080095
vt 0.509069 0.260451
vt 0.972728 0.507075
vt 0.894019 0.507075
vt 0.894019 0.901326
vt 0.972728 0.901326
vt 0.279918 0.593343
vt 0.320311 0.694980
vt 0.169562 0.753660
vt 0.678663 0.326466
vt 0.678663 0.194436
vt 0.509069 0.260451
vt 0.894019 0.507075
vt 0.803134 0.507075
vt 0.803134 0.901326
vt 0.894019 0.901326
vt 0.320311 0.694980
vt 0.320311 0.812340
vt 0.169562 0.753660
vt 0.633220 0.440808
vt 0.678663 0.326466
vt 0.509069 0.260451
vt 0.803134 0.507075
vt 0.724426 0.507075
vt 0.724426 0.901326
vt 0.803134 0.901326
vt 0.320311 0.812340
vt 0.279918 0.913977
vt 0.169562 0.753660
vt 0.554512 0.506823
vt 0.633220 0.440808
vt 0.509069 0.260451
vt 0.972728 0.013866
vt 0.894019 0.013866
vt 0.894019 0.408118
vt 0.972728 0.408118
vt 0.279918 0.913977
vt 0.209955 0.972657
vt 0.169562 0.753660
vt 0.463627 0.506823
vt 0.554512 0.506823
vt 0.509069 0.260451
vt 0.894019 0.013866
vt 0.803134 0.013866
vt 0.803134 0.408118
vt 0.894019 0.408118
vt 0.209955 0.972657
vt 0.129168 0.972657
vt 0.169562 0.753660
vt 0.129168 0.534663
vt 0.059205 0.593343
vt 0.045411 0.573304
vt 0.124119 0.507289
vt 0.209955 0.534663
vt 0.129168 0.534663
vt 0.124119 0.507289
vt 0.215004 0.507289
vt 0.279918 0.593343
vt 0.209955 0.534663
vt 0.215004 0.507289
vt 0.293713 0.573304
vt 0.320311 0.694980
vt 0.279918 0.593343
vt 0.293713 0.573304
vt 0.339155 0.687645
vt 0.320311 0.812340
vt 0.320311 0.694980
vt 0.339155 0.687645
vt 0.339155 0.819675
vt 0.279918 0.913977
vt 0.320311 0.812340
vt 0.339155 0.819675
vt 0.293713 0.934017
vt 0.209955 0.972657
vt 0.279918 0.913977
vt 0.293713 0.934017
vt 0.215004 1.000032
vt 0.129168 0.972657
vt 0.209955 0.972657
vt 0.215004 1.000032
vt 0.124119 1.000032
vt 0.059205 0.913977
vt 0.129168 0.972657
vt 0.124119 1.000032
vt 0.045411 0.934017
vt 0.018812 0.812340
vt 0.059205 0.913977
vt 0.045411 0.934017
vt -0.000032 0.819675
vt 0.018812 0.694980
vt 0.018812 0.812340
vt -0.000032 0.819675
vt -0.000032 0.687645
vt 0.059205 0.593343
vt 0.018812 0.694980
vt -0.000032 0.687645
vt 0.045411 0.573304
vn -0.707107 -0.707107 0.000000
vn -0.707107 -0.707107 0.000000
vn -0.707107 -0.707107 0.000000
vn 0.353553 -0.353553 0.866025
vn 0.353553 -0.353553 0.866025
vn 0.353553 -0.353553 0.866025
vn 0.353553 -0.353553 0.866025
vn 0.707107 0.707107 0.000000
vn 0.707107 0.707107 0.000000
vn 0.707107 0.707107 0.000000
vn -0.707107 -0.707107 0.000000
vn -0.707107 -0.707107 0.000000
vn -0.707107 -0.707107 0.000000
vn 0.612372 -0.612372 0.500000
vn 0.612372 -0.612372 0.500000
vn 0.612372 -0.612372 0.500000
vn 0.612372 -0.612372 0.500000
vn 0.707107 0.707107 0.000000
vn 0.707107 0.707107 0.000000
vn 0.707107 0.707107 0.000000
vn -0.707107 -0.707107 0.000000
vn -0.707107 -0.707107 0.000000
vn -0.707107 -0.707107 0.000000
vn 0.707107 -0.707107 0.000000
vn 0.707107 -0.707107 0.000000
vn 0.707107 -0.707107 0.000000
vn 0.707107 -0.707107 0.000000
vn 0.707107 0.707107 0.000000
vn 0.707107 0.707107 0.000000
vn 0.707107 0.707107 0.000000
vn -0.707107 -0.707107 0.000000
vn -0.707107 -0.707107 0.000000
vn -0.707107 -0.707107 0.000000
vn 0.612372 -0.612372 -0.500000
vn 0.612372 -0.612372 -0.500000
vn 0.612372 -0.612372 -0.500000
vn 0.612372 -0.612372 -0.500000
vn 0.707107 0.707107 0.000000
vn 0.707107 0.707107 0.000000
vn 0.707107 0.707107 0.000000
vn -0.707107 -0.707107 0.000000
vn -0.707107 -0.707107 0.000000
vn -0.707107 -0.707107 0.000000
vn 0.353553 -0.353553 -0.866025
vn 0.353553 -0.353553 -0.866025
vn 0.353553 -0.353553 -0.866025
vn 0.353553 -0.353553 -0.866025
vn 0.707107 0.707107 0.000000
vn 0.707107 0.707107 0.000000
vn 0.707107 0.707107 0.000000
vn -0.707107 -0.707107 0.000000
vn -0.707107 -0.707107 0.000000
vn -0.707107 -0.707107 0.000000
vn 0.000000 -0.000000 -1.000000
vn 0.000000 -0.000000 -1.000000
vn 0.000000 -0.000000 -1.000000
vn 0.000000 -0.000000 -1.000000
vn 0.707107 0.707107 0.000000
vn 0.707107 0.707107 0.000000
vn 0.707107 0.707107 0.000000
vn -0.707107 -0.707107 0.000000
vn -0.707107 -0.707107 0.000000
vn -0.707107 -0.707107 0.000000
vn -0.353553 0.353553 -0.866025
vn -0.353553 0.353553 -0.866025
vn -0.353553 0.353553 -0.866025
vn -0.353553 0.353553 -0.866025
vn 0.707107 0.707107 0.000000
vn 0.707107 0.707107 0.000000
vn 0.707107 0.707107 0.000000
vn -0.707107 -0.707107 0.000000
vn -0.707107 -0.707107 0.000000
vn -0.707107 -0.707107 0.000000
vn -0.612372 0.612372 -0.500000
vn -0.612372 0.612372 -0.500000
vn -0.612372 0.612372 -0.500000
vn -0.612372 0.612372 -0.500000
vn 0.707107 0.707107 0.000000
vn 0.707107 0.707107 0.000000
vn 0.707107 0.707107 0.000000
vn -0.707107 -0.707107 0.000000
vn -0.707107 -0.707107 0.000000
vn -0.707107 -0.707107 0.000000
vn -0.707107 0.707107 -0.000000
vn -0.707107 0.707107 -0.000000
vn -0.707107 0.707107 -0.000000
vn -0.707107 0.707107 -0.000000
vn 0.707107 0.707107 0.000000
vn 0.707107 0.707107 0.000000
vn 0.707107 0.707107 0.000000
vn -0.707107 -0.707107 0.000000
vn -0.707107 -0.707107 0.000000
vn -0.707107 -0.707107 0.000000
vn -0.612372 0.612372 0.500000
vn -0.612372 0.612372 0.500000
vn -0.612372 0.612372 0.500000
vn -0.612372 0.612372 0.500000
vn 0.707107 0.707107 0.000000
vn 0.707107 0.707107 0.000000
vn 0.707107 0.707107 0.000000
vn -0.707107 -0.707107 0.000000
vn -0.707107 -0.707107 0.000000
vn -0.707107 -0.707107 0.000000
vn -0.353553 0.353553 0.866025
vn -0.353553 0.353553 0.866025
vn -0.353553 0.353553 0.866025
vn -0.353553 0.353553 0.866025
vn 0.707107 0.707107 0.000000
vn 0.707107 0.707107 0.000000
vn 0.707107 0.707107 0.000000
vn -0.707107 -0.707107 0.000000
vn -0.707107 -0.707107 0.000000
vn -0.707107 -0.707107 0.000000
vn 0.000000 0.000000 1.000000
vn 0.000000 0.000000 1.000000
vn 0.000000 0.000000 1.000000
vn 0.000000 0.000000 1.000000
vn 0.707107 0.707107 0.000000
vn 0.707107 0.707107 0.000000
vn 0.707107 0.707107 0.000000
vn 0.750000 0.250000 -0.612372
vn 0.750000 0.250000 -0.612372
vn 0.750000 0.250000 -0.612372
vn 0.750000 0.250000 -0.612372
vn 0.500000 0.500000 -0.707107
vn 0.500000 0.500000 -0.707107
vn 0.500000 0.500000 -0.707107
vn 0.500000 0.500000 -0.707107
vn 0.250000 0.750000 -0.612372
vn 0.250000 0.750000 -0.612372
vn 0.250000 0.750000 -0.612372
vn 0.250000 0.750000 -0.612372
vn 0.066987 0.933013 -0.353553
vn 0.066987 0.933013 -0.353553
vn 0.066987 0.933013 -0.353553
vn 0.066987 0.933013 -0.353553
vn -0.000000 1.000000 -0.000000
vn -0.000000 1.000000 -0.000000
vn -0.000000 1.000000 -0.000000
vn -0.000000 1.000000 -0.000000
vn 0.066987 0.933013 0.353553
vn 0.066987 0.933013 0.353553
vn 0.066987 0.933013 0.353553
vn 0.066987 0.933013 0.353553
vn 0.250000 0.750000 0.612372
vn 0.250000 0.750000 0.612372
vn 0.250000 0.750000 0.612372
vn 0.250000 0.750000 0.612372
vn 0.500000 0.500000 0.707107
vn 0.500000 0.500000 0.707107
vn 0.500000 0.500000 0.707107
vn 0.500000 0.500000 0.707107
vn 0.750000 0.250000 0.612372
vn 0.750000 0.250000 0.612372
vn 0.750000 0.250000 0.612372
vn 0.750000 0.250000 0.612372
vn 0.933013 0.066987 0.353553
vn 0.933013 0.066987 0.353553
vn 0.933013 0.066987 0.353553
vn 0.933013 0.066987 0.353553
vn 1.000000 0.000000 0.000000
vn 1.000000 0.000000 0.000000
vn 1.000000 0.000000 0.000000
vn 1.000000 0.000000 0.000000
vn 0.933013 0.066987 -0.353553
vn 0.933013 0.066987 -0.353553
vn 0.933013 0.066987 -0.353553
vn 0.933013 0.066987 -0.353553
usemtl m1
f 121/121/121 122/122/122 123/123/123
f 124/124/124 125/125/125 126/126/126
f 124/124/124 126/126/126 127/127/127
f 128/128/128 129/129/129 130/130/130
f 131/131/131 132/132/132 133/133/133
f 134/134/134 135/135/135 136/136/136
f 134/134/134 136/136/136 137/137/137
f 138/138/138 139/139/139 140/140/140
f 141/141/141 142/142/142 143/143/143
f 144/144/144 145/145/145 146/146/146
f 144/144/144 146/146/146 147/147/147
f 148/148/148 149/149/149 150/150/150
f 151/151/151 152/152/152 153/153/153
f 154/154/154 155/155/155 156/156/156
f 154/154/154 156/156/156 157/157/157
f 158/158/158 159/159/159 160/160/160
f 161/161/161 162/162/162 163/163/163
f 164/164/164 165/165/165 166/166/166
f 164/164/164 166/166/166 167/167/167
f 168/168/168 169/169/169 170/170/170
f 171/171/171 172/172/172 173/173/173
f 174/174/174 175/175/175 176/176/176
f 174/174/174 176/176/176 177/177/177
f 178/178/178 179/179/179 180/180/180
f 181/181/181 182/182/182 183/183/183
f 184/184/184 185/185/185 186/186/186
f 184/184/184 186/186/186 187/187/187
f 188/188/188 189/189/189 190/190/190
f 191/191/191 192/192/192 193/193/193
f 194/194/194 195/195/195 196/196/196
f 194/194/194 196/196/196 197/197/197
f 198/198/198 199/199/199 200/200/200
f 201/201/201 202/202/202 203/203/203
f 204/204/204 205/205/205 206/206/206
f 204/204/204 206/206/206 207/207/207
f 208/208/208 209/209/209 210/210/210
f 211/211/211 212/212/212 213/213/213
f 214/214/214 215/215/215 216/216/216
f 214/214/214 216/216/216 217/217/217
f 218/218/218 219/219/219 220/220/220
f 221/221/221 222/222/222 223/223/223
f 224/224/224 225/225/225 226/226/226
f 224/224/224 226/226/226 227/227/227
f 228/228/228 229/229/229 230/230/230
f 231/231/231 232/232/232 233/233/233
f 234/234/234 235/235/235 236/236/236
f 234/234/234 236/236/236 237/237/237
f 238/238/238 239/239/239 240/240/240
f 241/241/241 242/242/242 243/243/243
f 241/241/241 243/243/243 244/244/244
f 245/245/245 246/246/246 247/247/247
f 245/245/245 247/247/247 248/248/248
f 249/249/249 250/250/250 251/251/251
f 249/249/249 251/251/251 252/252/252
f 253/253/253 254/254/254 255/255/255
f 253/253/253 255/255/255 256/256/256
f 257/257/257 258/258/258 259/259/259
f 257/257/257 259/259/259 260/260/260
f 261/261/261 262/262/262 263/263/263
f 261/261/261 263/263/263 264/264/264
f 265/265/265 266/266/266 267/267/267
f 265/265/265 267/267/267 268/268/268
f 269/269/269 270/270/270 271/271/271
f 269/269/269 271/271/271 272/272/272
f 273/273/273 274/274/274 275/275/275
f 273/273/273 275/275/275 276/276/276
f 277/277/277 278/278/278 279/279/279
f 277/277/277 279/279/279 280/280/280
f 281/281/281 282/282/282 283/283/283
f 281/281/281 283/283/283 284/284/284
f 285/285/285 286/286/286 287/287/287
f 285/285/285 287/287/287 288/288/288
o handguard
v 0.403674 0.230848 0.490223
v 0.418653 0.225087 0.509777
v 0.418653 0.225087 0.490223
v 0.403674 0.230848 0.509777
v 0.230848 0.403674 0.509777
v 0.225087 0.418653 0.490223
v 0.225087 0.418653 0.509777
v 0.230848 0.403674 0.490223
v 0.312652 0.370261 0.460894
v 0.283079 0.372182 0.539106
v 0.283079 0.372182 0.460894
v 0.312652 0.370261 0.539106
v 0.288457 0.346065 0.539106
v 0.265797 0.354899 0.460894
v 0.265797 0.354899 0.539106
v 0.288457 0.346065 0.460894
v 0.293065 0.350674 0.539106
v 0.265797 0.354899 0.539106
v 0.276496 0.365598 0.539106
v 0.288457 0.346065 0.539106
v 0.288457 0.346065 0.460894
v 0.276496 0.365598 0.460894
v 0.265797 0.354899 0.460894
v 0.293065 0.350674 0.460894
v 0.297674 0.355283 0.460894
v 0.283079 0.372182 0.460894
v 0.279788 0.368890 0.460894
v 0.312652 0.370261 0.460894
v 0.293065 0.350674 0.460894
v 0.279788 0.368890 0.460894
v 0.276496 0.365598 0.460894
v 0.297674 0.355283 0.460894
v 0.244674 0.417500 0.490223
v 0.229696 0.423261 0.490223
v 0.229696 0.423261 0.509777
v 0.244674 0.417500 0.509777
v 0.229696 0.423261 0.490223
v 0.225087 0.418653 0.490223
v 0.225087 0.418653 0.509777
v 0.229696 0.423261 0.509777
v 0.312652 0.370261 0.539106
v 0.279788 0.368890 0.539106
v 0.283079 0.372182 0.539106
v 0.297674 0.355283 0.539106
v 0.297674 0.355283 0.539106
v 0.276496 0.365598 0.539106
v 0.279788 0.368890 0.539106
v 0.293065 0.350674 0.539106
v 0.417500 0.244674 0.509777
v 0.423261 0.229696 0.509777
v 0.423261 0.229696 0.490223
v 0.417500 0.244674 0.490223
v 0.423261 0.229696 0.509777
v 0.418653 0.225087 0.509777
v 0.418653 0.225087 0.490223
v 0.423261 0.229696 0.490223
v 0.355283 0.297674 0.460894
v 0.365599 0.276495 0.460894
v 0.368891 0.279787 0.460894
v 0.350674 0.293065 0.460894
v 0.350674 0.293065 0.460894
v 0.293065 0.350674 0.460894
v 0.297674 0.355283 0.460894
v 0.355283 0.297674 0.460894
v 0.370261 0.312652 0.460894
v 0.368891 0.279787 0.460894
v 0.372182 0.283079 0.460894
v 0.355283 0.297674 0.460894
v 0.355283 0.297674 0.460894
v 0.297674 0.355283 0.460894
v 0.312652 0.370261 0.460894
v 0.370261 0.312652 0.460894
v 0.370261 0.312652 0.539106
v 0.372182 0.283079 0.460894
v 0.372182 0.283079 0.539106
v 0.370261 0.312652 0.460894
v 0.370261 0.312652 0.460894
v 0.312652 0.370261 0.460894
v 0.312652 0.370261 0.539106
v 0.370261 0.312652 0.539106
v 0.355283 0.297674 0.539106
v 0.372182 0.283079 0.539106
v 0.368891 0.279787 0.539106
v 0.370261 0.312652 0.539106
v 0.370261 0.312652 0.539106
v 0.312652 0.370261 0.539106
v 0.297674 0.355283 0.539106
v 0.355283 0.297674 0.539106
v 0.350674 0.293065 0.539106
v 0.368891 0.279787 0.539106
v 0.365599 0.276495 0.539106
v 0.355283 0.297674 0.539106
v 0.355283 0.297674 0.539106
v 0.297674 0.355283 0.539106
v 0.293065 0.350674 0.539106
v 0.350674 0.293065 0.539106
v 0.346065 0.288457 0.539106
v 0.365599 0.276495 0.539106
v 0.354900 0.265796 0.539106
v 0.350674 0.293065 0.539106
v 0.350674 0.293065 0.539106
v 0.293065 0.350674 0.539106
v 0.288457 0.346065 0.539106
v 0.346065 0.288457 0.539106
v 0.346065 0.288457 0.460894
v 0.354900 0.265796 0.539106
v 0.354900 0.265796 0.460894
v 0.346065 0.288457 0.539106
v 0.346065 0.288457 0.539106
v 0.288457 0.346065 0.539106
v 0.288457 0.346065 0.460894
v 0.346065 0.288457 0.460894
v 0.350674 0.293065 0.460894
v 0.354900 0.265796 0.460894
v 0.365599 0.276495 0.460894
v 0.346065 0.288457 0.460894
v 0.346065 0.288457 0.460894
v 0.288457 0.346065 0.460894
v 0.293065 0.350674 0.460894
v 0.350674 0.293065 0.460894
v 0.423261 0.229696 0.490223
v 0.383320 0.269637 0.460894
v 0.391385 0.277702 0.460894
v 0.417500 0.244674 0.490223
v 0.383320 0.269637 0.460894
v 0.368891 0.279787 0.460894
v 0.372182 0.283079 0.460894
v 0.391385 0.277702 0.460894
v 0.417500 0.244674 0.490223
v 0.391385 0.277702 0.460894
v 0.391385 0.277702 0.539106
v 0.417500 0.244674 0.509777
v 0.391385 0.277702 0.460894
v 0.372182 0.283079 0.460894
v 0.372182 0.283079 0.539106
v 0.391385 0.277702 0.539106
v 0.417500 0.244674 0.509777
v 0.391385 0.277702 0.539106
v 0.383320 0.269637 0.539106
v 0.423261 0.229696 0.509777
v 0.391385 0.277702 0.539106
v 0.372182 0.283079 0.539106
v 0.368891 0.279787 0.539106
v 0.383320 0.269637 0.539106
v 0.423261 0.229696 0.509777
v 0.383320 0.269637 0.539106
v 0.378711 0.265028 0.539106
v 0.418653 0.225087 0.509777
v 0.383320 0.269637 0.539106
v 0.368891 0.279787 0.539106
v 0.365599 0.276495 0.539106
v 0.378711 0.265028 0.539106
v 0.418653 0.225087 0.509777
v 0.378711 0.265028 0.539106
v 0.363733 0.250050 0.539106
v 0.403674 0.230848 0.509777
v 0.378711 0.265028 0.539106
v 0.365599 0.276495 0.539106
v 0.354900 0.265796 0.539106
v 0.363733 0.250050 0.539106
v 0.403674 0.230848 0.509777
v 0.363733 0.250050 0.539106
v 0.363733 0.250050 0.460894
v 0.403674 0.230848 0.490223
v 0.363733 0.250050 0.539106
v 0.354900 0.265796 0.539106
v 0.354900 0.265796 0.460894
v 0.363733 0.250050 0.460894
v 0.403674 0.230848 0.490223
v 0.363733 0.250050 0.460894
v 0.378711 0.265028 0.460894
v 0.418653 0.225087 0.490223
v 0.363733 0.250050 0.460894
v 0.354900 0.265796 0.460894
v 0.365599 0.276495 0.460894
v 0.378711 0.265028 0.460894
v 0.418653 0.225087 0.490223
v 0.378711 0.265028 0.460894
v 0.383320 0.269637 0.460894
v 0.423261 0.229696 0.490223
v 0.378711 0.265028 0.460894
v 0.365599 0.276495 0.460894
v 0.368891 0.279787 0.460894
v 0.383320 0.269637 0.460894
v 0.244674 0.417500 0.490223
v 0.277703 0.391385 0.460894
v 0.269638 0.383319 0.460894
v 0.229696 0.423261 0.490223
v 0.277703 0.391385 0.460894
v 0.283079 0.372182 0.460894
v 0.279788 0.368890 0.460894
v 0.269638 0.383319 0.460894
v 0.229696 0.423261 0.490223
v 0.269638 0.383319 0.460894
v 0.265029 0.378711 0.460894
v 0.225087 0.418653 0.490223
v 0.269638 0.383319 0.460894
v 0.279788 0.368890 0.460894
v 0.276496 0.365598 0.460894
v 0.265029 0.378711 0.460894
v 0.225087 0.418653 0.490223
v 0.265029 0.378711 0.460894
v 0.250051 0.363732 0.460894
v 0.230848 0.403674 0.490223
v 0.265029 0.378711 0.460894
v 0.276496 0.365598 0.460894
v 0.265797 0.354899 0.460894
v 0.250051 0.363732 0.460894
v 0.230848 0.403674 0.490223
v 0.250051 0.363732 0.460894
v 0.250051 0.363732 0.539106
v 0.230848 0.403674 0.509777
v 0.250051 0.363732 0.460894
v 0.265797 0.354899 0.460894
v 0.265797 0.354899 0.539106
v 0.250051 0.363732 0.539106
v 0.230848 0.403674 0.509777
v 0.250051 0.363732 0.539106
v 0.265029 0.378711 0.539106
v 0.225087 0.418653 0.509777
v 0.250051 0.363732 0.539106
v 0.265797 0.354899 0.539106
v 0.276496 0.365598 0.539106
v 0.265029 0.378711 0.539106
v 0.225087 0.418653 0.509777
v 0.265029 0.378711 0.539106
v 0.269638 0.383319 0.539106
v 0.229696 0.423261 0.509777
v 0.265029 0.378711 0.539106
v 0.276496 0.365598 0.539106
v 0.279788 0.368890 0.539106
v 0.269638 0.383319 0.539106
v 0.229696 0.423261 0.509777
v 0.269638 0.383319 0.539106
v 0.277703 0.391385 0.539106
v 0.244674 0.417500 0.509777
v 0.269638 0.383319 0.539106
v 0.279788 0.368890 0.539106
v 0.283079 0.372182 0.539106
v 0.277703 0.391385 0.539106
v 0.244674 0.417500 0.509777
v 0.277703 0.391385 0.539106
v 0.277703 0.391385 0.460894
v 0.244674 0.417500 0.490223
v 0.277703 0.391385 0.539106
v 0.283079 0.372182 0.539106
v 0.283079 0.372182 0.460894
v 0.277703 0.391385 0.460894
vt 0.349430 0.198770
vt 0.331677 0.321970
vt 0.331677 0.198770
vt 0.349430 0.321970
vt 0.645319 0.321970
vt 0.663073 0.198770
vt 0.663073 0.321970
vt 0.645319 0.198770
vt 0.214968 0.507231
vt 0.241928 1.000029
vt 0.241928 0.507231
vt 0.214968 1.000029
vt 0.546690 0.506769
vt 0.573649 0.013971
vt 0.573649 0.506769
vt 0.546690 0.013971
vt 0.878411 0.227469
vt 0.905370 0.063197
vt 0.905370 0.215735
vt 0.878411 0.161760
vt 0.214968 0.161760
vt 0.241928 0.215735
vt 0.241928 0.063197
vt 0.214968 0.227469
vt 0.214968 0.293178
vt 0.241928 0.309605
vt 0.241928 0.262670
vt 0.214968 0.506732
vt 0.214968 0.227469
vt 0.241928 0.262670
vt 0.241928 0.215735
vt 0.214968 0.293178
vt 0.313598 0.692031
vt 0.331351 0.692031
vt 0.331351 0.815230
vt 0.313598 0.815230
vt 0.870559 0.786439
vt 0.870559 0.720730
vt 0.787707 0.720730
vt 0.787707 0.786439
vt 0.878411 0.506732
vt 0.905370 0.262670
vt 0.905370 0.309605
vt 0.878411 0.293178
vt 0.878411 0.293178
vt 0.905370 0.215735
vt 0.905370 0.262670
vt 0.878411 0.227469
vt 0.017709 0.815230
vt -0.000044 0.815230
vt -0.000044 0.692031
vt 0.017709 0.692031
vt 0.455986 0.786439
vt 0.455986 0.720730
vt 0.538838 0.720730
vt 0.538838 0.786439
vt 0.116339 0.293178
vt 0.089378 0.215735
vt 0.089378 0.262670
vt 0.116339 0.227469
vt 0.116339 0.227469
vt 0.214968 0.227469
vt 0.214968 0.293178
vt 0.116339 0.293178
vt 0.116339 0.506732
vt 0.089378 0.262670
vt 0.089378 0.309603
vt 0.116339 0.293178
vt 0.116339 0.293178
vt 0.214968 0.293178
vt 0.214968 0.506732
vt 0.116339 0.506732
vt 0.116339 1.000029
vt 0.089378 0.507231
vt 0.089378 1.000029
vt 0.116339 0.507231
vt 0.116339 0.507231
vt 0.214968 0.507231
vt 0.214968 1.000029
vt 0.116339 1.000029
vt 0.779781 0.293178
vt 0.752821 0.309603
vt 0.752821 0.262670
vt 0.779781 0.506732
vt 0.779781 0.506732
vt 0.878411 0.506732
vt 0.878411 0.293178
vt 0.779781 0.293178
vt 0.779781 0.227469
vt 0.752821 0.262670
vt 0.752821 0.215735
vt 0.779781 0.293178
vt 0.779781 0.293178
vt 0.878411 0.293178
vt 0.878411 0.227469
vt 0.779781 0.227469
vt 0.779781 0.161760
vt 0.752821 0.215735
vt 0.752821 0.063197
vt 0.779781 0.227469
vt 0.779781 0.227469
vt 0.878411 0.227469
vt 0.878411 0.161760
vt 0.779781 0.161760
vt 0.448060 0.013971
vt 0.421099 0.506769
vt 0.421099 0.013971
vt 0.448060 0.506769
vt 0.448060 0.506769
vt 0.546690 0.506769
vt 0.546690 0.013971
vt 0.448060 0.013971
vt 0.116339 0.227469
vt 0.089378 0.063197
vt 0.089378 0.215735
vt 0.116339 0.161760
vt 0.116339 0.161760
vt 0.214968 0.161760
vt 0.214968 0.227469
vt 0.116339 0.227469
vt -0.000044 0.293178
vt 0.068338 0.293178
vt 0.068338 0.408167
vt 0.017709 0.358887
vt 0.068338 0.293178
vt 0.089378 0.262670
vt 0.089378 0.309603
vt 0.068338 0.408167
vt 0.017709 0.692031
vt 0.068338 0.507231
vt 0.068338 1.000029
vt 0.017709 0.815230
vt 0.068338 0.507231
vt 0.089378 0.507231
vt 0.089378 1.000029
vt 0.068338 1.000029
vt 0.681152 0.358887
vt 0.731780 0.408167
vt 0.731780 0.293178
vt 0.663398 0.293178
vt 0.731780 0.408167
vt 0.752821 0.309603
vt 0.752821 0.262670
vt 0.731780 0.293178
vt 0.663398 0.293178
vt 0.731780 0.293178
vt 0.731780 0.227469
vt 0.663398 0.227469
vt 0.731780 0.293178
vt 0.752821 0.262670
vt 0.752821 0.215735
vt 0.731780 0.227469
vt 0.663398 0.227469
vt 0.731780 0.227469
vt 0.731780 0.013916
vt 0.681152 0.161760
vt 0.731780 0.227469
vt 0.752821 0.215735
vt 0.752821 0.063197
vt 0.731780 0.013916
vt 0.349430 0.321970
vt 0.400059 0.506769
vt 0.400059 0.013971
vt 0.349430 0.198770
vt 0.400059 0.506769
vt 0.421099 0.506769
vt 0.421099 0.013971
vt 0.400059 0.013971
vt 0.017709 0.161760
vt 0.068338 0.013916
vt 0.068338 0.227469
vt -0.000044 0.227469
vt 0.068338 0.013916
vt 0.089378 0.063197
vt 0.089378 0.215735
vt 0.068338 0.227469
vt -0.000044 0.227469
vt 0.068338 0.227469
vt 0.068338 0.293178
vt -0.000044 0.293178
vt 0.068338 0.227469
vt 0.089378 0.215735
vt 0.089378 0.262670
vt 0.068338 0.293178
vt 0.313598 0.358887
vt 0.262968 0.408168
vt 0.262968 0.293178
vt 0.331351 0.293178
vt 0.262968 0.408168
vt 0.241928 0.309605
vt 0.241928 0.262670
vt 0.262968 0.293178
vt 0.331351 0.293178
vt 0.262968 0.293178
vt 0.262968 0.227469
vt 0.331351 0.227469
vt 0.262968 0.293178
vt 0.241928 0.262670
vt 0.241928 0.215735
vt 0.262968 0.227469
vt 0.331351 0.227469
vt 0.262968 0.227469
vt 0.262968 0.013916
vt 0.313598 0.161760
vt 0.262968 0.227469
vt 0.241928 0.215735
vt 0.241928 0.063197
vt 0.262968 0.013916
vt 0.645319 0.198770
vt 0.594690 0.013971
vt 0.594690 0.506769
vt 0.645319 0.321970
vt 0.594690 0.013971
vt 0.573649 0.013971
vt 0.573649 0.506769
vt 0.594690 0.506769
vt 0.977041 0.161760
vt 0.926411 0.013916
vt 0.926411 0.227469
vt 0.994794 0.227469
vt 0.926411 0.013916
vt 0.905370 0.063197
vt 0.905370 0.215735
vt 0.926411 0.227469
vt 0.994794 0.227469
vt 0.926411 0.227469
vt 0.926411 0.293178
vt 0.994794 0.293178
vt 0.926411 0.227469
vt 0.905370 0.215735
vt 0.905370 0.262670
vt 0.926411 0.293178
vt 0.994794 0.293178
vt 0.926411 0.293178
vt 0.926411 0.408168
vt 0.977041 0.358887
vt 0.926411 0.293178
vt 0.905370 0.262670
vt 0.905370 0.309605
vt 0.926411 0.408168
vt 0.313598 0.815230
vt 0.262968 1.000029
vt 0.262968 0.507231
vt 0.313598 0.692031
vt 0.262968 1.000029
vt 0.241928 1.000029
vt 0.241928 0.507231
vt 0.262968 0.507231
vn -0.358979 -0.933346 0.000000
vn -0.358979 -0.933346 0.000000
vn -0.358979 -0.933346 0.000000
vn -0.358979 -0.933346 0.000000
vn -0.933346 -0.358979 0.000000
vn -0.933346 -0.358979 0.000000
vn -0.933346 -0.358979 0.000000
vn -0.933346 -0.358979 0.000000
vn 0.064806 0.997898 0.000000
vn 0.064806 0.997898 0.000000
vn 0.064806 0.997898 0.000000
vn 0.064806 0.997898 0.000000
vn -0.363214 -0.931706 0.000000
vn -0.363214 -0.931706 0.000000
vn -0.363214 -0.931706 0.000000
vn -0.363214 -0.931706 0.000000
vn 0.000000 0.000000 1.000000
vn 0.000000 0.000000 1.000000
vn 0.000000 0.000000 1.000000
vn 0.000000 0.000000 1.000000
vn 0.000000 0.000000 -1.000000
vn 0.000000 0.000000 -1.000000
vn 0.000000 0.000000 -1.000000
vn 0.000000 0.000000 -1.000000
vn 0.000000 0.000000 -1.000000
vn 0.000000 0.000000 -1.000000
vn 0.000000 0.000000 -1.000000
vn 0.000000 0.000000 -1.000000
vn 0.000000 0.000000 -1.000000
vn 0.000000 0.000000 -1.000000
vn 0.000000 0.000000 -1.000000
vn 0.000000 0.000000 -1.000000
vn 0.358979 0.933346 0.000000
vn 0.358979 0.933346 0.000000
vn 0.358979 0.933346 0.000000
vn 0.358979 0.933346 0.000000
vn -0.707107 0.707107 0.000000
vn -0.707107 0.707107 0.000000
vn -0.707107 0.707107 0.000000
vn -0.707107 0.707107 0.000000
vn 0.000000 0.000000 1.000000
vn 0.000000 0.000000 1.000000
vn 0.000000 0.000000 1.000000
vn 0.000000 0.000000 1.000000
vn 0.000000 0.000000 1.000000
vn 0.000000 0.000000 1.000000
vn 0.000000 0.000000 1.000000
vn 0.000000 0.000000 1.000000
vn 0.933346 0.358979 0.000000
vn 0.933346 0.358979 0.000000
vn 0.933346 0.358979 0.000000
vn 0.933346 0.358979 0.000000
vn 0.707107 -0.707107 0.000000
vn 0.707107 -0.707107 0.000000
vn 0.707107 -0.707107 0.000000
vn 0.707107 -0.707107 0.000000
vn 0.000000 0.000000 -1.000000
vn 0.000000 0.000000 -1.000000
vn 0.000000 0.000000 -1.000000
vn 0.000000 0.000000 -1.000000
vn 0.000000 0.000000 -1.000000
vn 0.000000 0.000000 -1.000000
vn 0.000000 0.000000 -1.000000
vn 0.000000 0.000000 -1.000000
vn 0.000000 0.000000 -1.000000
vn 0.000000 0.000000 -1.000000
vn 0.000000 0.000000 -1.000000
vn 0.000000 0.000000 -1.000000
vn 0.000000 0.000000 -1.000000
vn 0.000000 0.000000 -1.000000
vn 0.000000 0.000000 -1.000000
vn 0.000000 0.000000 -1.000000
vn 0.997896 0.064830 0.000000
vn 0.997896 0.064830 0.000000
vn 0.997896 0.064830 0.000000
vn 0.997896 0.064830 0.000000
vn 0.707107 0.707107 0.000000
vn 0.707107 0.707107 0.000000
vn 0.707107 0.707107 0.000000
vn 0.707107 0.707107 0.000000
vn 0.000000 0.000000 1.000000
vn 0.000000 0.000000 1.000000
vn 0.000000 0.000000 1.000000
vn 0.000000 0.000000 1.000000
vn 0.000000 0.000000 1.000000
vn 0.000000 0.000000 1.000000
vn 0.000000 0.000000 1.000000
vn 0.000000 0.000000 1.000000
vn 0.000000 0.000000 1.000000
vn 0.000000 0.000000 1.000000
vn 0.000000 0.000000 1.000000
vn 0.000000 0.000000 1.000000
vn 0.000000 0.000000 1.000000
vn 0.000000 0.000000 1.000000
vn 0.000000 0.000000 1.000000
vn 0.000000 0.000000 1.000000
vn 0.000000 0.000000 1.000000
vn 0.000000 0.000000 1.000000
vn 0.000000 0.000000 1.000000
vn 0.000000 0.000000 1.000000
vn 0.000000 0.000000 1.000000
vn 0.000000 0.000000 1.000000
vn 0.000000 0.000000 1.000000
vn 0.000000 0.000000 1.000000
vn -0.931698 -0.363233 0.000000
vn -0.931698 -0.363233 0.000000
vn -0.931698 -0.363233 0.000000
vn -0.931698 -0.363233 0.000000
vn -0.707107 -0.707107 0.000000
vn -0.707107 -0.707107 0.000000
vn -0.707107 -0.707107 0.000000
vn -0.707107 -0.707107 0.000000
vn 0.000000 0.000000 -1.000000
vn 0.000000 0.000000 -1.000000
vn 0.000000 0.000000 -1.000000
vn 0.000000 0.000000 -1.000000
vn 0.000000 0.000000 -1.000000
vn 0.000000 0.000000 -1.000000
vn 0.000000 0.000000 -1.000000
vn 0.000000 0.000000 -1.000000
vn 0.325851 -0.325851 -0.887492
vn 0.325851 -0.325851 -0.887492
vn 0.325851 -0.325851 -0.887492
vn 0.325851 -0.325851 -0.887492
vn 0.000000 0.000000 -1.000000
vn 0.000000 0.000000 -1.000000
vn 0.000000 0.000000 -1.000000
vn 0.000000 0.000000 -1.000000
vn 0.784415 0.620236 0.000000
vn 0.784415 0.620236 0.000000
vn 0.784415 0.620236 0.000000
vn 0.784415 0.620236 0.000000
vn 0.269616 0.962968 0.000000
vn 0.269616 0.962968 0.000000
vn 0.269616 0.962968 0.000000
vn 0.269616 0.962968 0.000000
vn 0.406011 -0.406011 0.818725
vn 0.406011 -0.406011 0.818725
vn 0.406011 -0.406011 0.818725
vn 0.406011 -0.406011 0.818725
vn 0.000000 0.000000 1.000000
vn 0.000000 0.000000 1.000000
vn 0.000000 0.000000 1.000000
vn 0.000000 0.000000 1.000000
vn 0.325851 -0.325851 0.887492
vn 0.325851 -0.325851 0.887492
vn 0.325851 -0.325851 0.887492
vn 0.325851 -0.325851 0.887492
vn 0.000000 0.000000 1.000000
vn 0.000000 0.000000 1.000000
vn 0.000000 0.000000 1.000000
vn 0.000000 0.000000 1.000000
vn 0.325851 -0.325851 0.887492
vn 0.325851 -0.325851 0.887492
vn 0.325851 -0.325851 0.887492
vn 0.325851 -0.325851 0.887492
vn 0.000000 0.000000 1.000000
vn 0.000000 0.000000 1.000000
vn 0.000000 0.000000 1.000000
vn 0.000000 0.000000 1.000000
vn -0.433287 -0.901256 0.000000
vn -0.433287 -0.901256 0.000000
vn -0.433287 -0.901256 0.000000
vn -0.433287 -0.901256 0.000000
vn -0.872147 -0.489244 0.000000
vn -0.872147 -0.489244 0.000000
vn -0.872147 -0.489244 0.000000
vn -0.872147 -0.489244 0.000000
vn 0.406011 -0.406011 -0.818725
vn 0.406011 -0.406011 -0.818725
vn 0.406011 -0.406011 -0.818725
vn 0.406011 -0.406011 -0.818725
vn 0.000000 0.000000 -1.000000
vn 0.000000 0.000000 -1.000000
vn 0.000000 0.000000 -1.000000
vn 0.000000 0.000000 -1.000000
vn 0.325851 -0.325851 -0.887492
vn 0.325851 -0.325851 -0.887492
vn 0.325851 -0.325851 -0.887492
vn 0.325851 -0.325851 -0.887492
vn 0.000000 0.000000 -1.000000
vn 0.000000 0.000000 -1.000000
vn 0.000000 0.000000 -1.000000
vn 0.000000 0.000000 -1.000000
vn -0.406005 0.406005 -0.818730
vn -0.406005 0.406005 -0.818730
vn -0.406005 0.406005 -0.818730
vn -0.406005 0.406005 -0.818730
vn 0.000000 0.000000 -1.000000
vn 0.000000 0.000000 -1.000000
vn 0.000000 0.000000 -1.000000
vn 0.000000 0.000000 -1.000000
vn -0.325847 0.325847 -0.887495
vn -0.325847 0.325847 -0.887495
vn -0.325847 0.325847 -0.887495
vn -0.325847 0.325847 -0.887495
vn 0.000000 0.000000 -1.000000
vn 0.000000 0.000000 -1.000000
vn 0.000000 0.000000 -1.000000
vn 0.000000 0.000000 -1.000000
vn -0.325847 0.325847 -0.887495
vn -0.325847 0.325847 -0.887495
vn -0.325847 0.325847 -0.887495
vn -0.325847 0.325847 -0.887495
vn 0.000000 0.000000 -1.000000
vn 0.000000 0.000000 -1.000000
vn 0.000000 0.000000 -1.000000
vn 0.000000 0.000000 -1.000000
vn -0.901253 -0.433293 0.000000
vn -0.901253 -0.433293 0.000000
vn -0.901253 -0.433293 0.000000
vn -0.901253 -0.433293 0.000000
vn -0.489249 -0.872144 0.000000
vn -0.489249 -0.872144 0.000000
vn -0.489249 -0.872144 0.000000
vn -0.489249 -0.872144 0.000000
vn -0.406005 0.406005 0.818730
vn -0.406005 0.406005 0.818730
vn -0.406005 0.406005 0.818730
vn -0.406005 0.406005 0.818730
vn 0.000000 0.000000 1.000000
vn 0.000000 0.000000 1.000000
vn 0.000000 0.000000 1.000000
vn 0.000000 0.000000 1.000000
vn -0.325847 0.325847 0.887495
vn -0.325847 0.325847 0.887495
vn -0.325847 0.325847 0.887495
vn -0.325847 0.325847 0.887495
vn 0.000000 0.000000 1.000000
vn 0.000000 0.000000 1.000000
vn 0.000000 0.000000 1.000000
vn 0.000000 0.000000 1.000000
vn -0.325847 0.325847 0.887495
vn -0.325847 0.325847 0.887495
vn -0.325847 0.325847 0.887495
vn -0.325847 0.325847 0.887495
vn 0.000000 0.000000 1.000000
vn 0.000000 0.000000 1.000000
vn 0.000000 0.000000 1.000000
vn 0.000000 0.000000 1.000000
vn 0.620236 0.784415 0.000000
vn 0.620236 0.784415 0.000000
vn 0.620236 0.784415 0.000000
vn 0.620236 0.784415 0.000000
vn 0.962965 0.269626 0.000000
vn 0.962965 0.269626 0.000000
vn 0.962965 0.269626 0.000000
vn 0.962965 0.269626 0.000000
usemtl m1
f 289/289/289 291/291/291 290/290/290
f 289/289/289 290/290/290 292/292/292
f 293/293/293 295/295/295 294/294/294
f 293/293/293 294/294/294 296/296/296
f 297/297/297 299/299/299 298/298/298
f 297/297/297 298/298/298 300/300/300
f 301/301/301 303/303/303 302/302/302
f 301/301/301 302/302/302 304/304/304
f 305/305/305 307/307/307 306/306/306
f 305/305/305 306/306/306 308/308/308
f 309/309/309 311/311/311 310/310/310
f 309/309/309 310/310/310 312/312/312
f 313/313/313 315/315/315 314/314/314
f 313/313/313 314/314/314 316/316/316
f 317/317/317 319/319/319 318/318/318
f 317/317/317 318/318/318 320/320/320
f 321/321/321 322/322/322 323/323/323
f 321/321/321 323/323/323 324/324/324
f 325/325/325 326/326/326 327/327/327
f 325/325/325 327/327/327 328/328/328
f 329/329/329 331/331/331 330/330/330
f 329/329/329 330/330/330 332/332/332
f 333/333/333 335/335/335 334/334/334
f 333/333/333 334/334/334 336/336/336
f 337/337/337 338/338/338 339/339/339
f 337/337/337 339/339/339 340/340/340
f 341/341/341 342/342/342 343/343/343
f 341/341/341 343/343/343 344/344/344
f 345/345/345 347/347/347 346/346/346
f 345/345/345 346/346/346 348/348/348
f 349/349/349 350/350/350 351/351/351
f 349/349/349 351/351/351 352/352/352
f 353/353/353 355/355/355 354/354/354
f 353/353/353 354/354/354 356/356/356
f 357/357/357 358/358/358 359/359/359
f 357/357/357 359/359/359 360/360/360
f 361/361/361 363/363/363 362/362/362
f 361/361/361 362/362/362 364/364/364
f 365/365/365 366/366/366 367/367/367
f 365/365/365 367/367/367 368/368/368
f 369/369/369 371/371/371 370/370/370
f 369/369/369 370/370/370 372/372/372
f 373/373/373 374/374/374 375/375/375
f 373/373/373 375/375/375 376/376/376
f 377/377/377 379/379/379 378/378/378
f 377/377/377 378/378/378 380/380/380
f 381/381/381 382/382/382 383/383/383
f 381/381/381 383/383/383 384/384/384
f 385/385/385 387/387/387 386/386/386
f 385/385/385 386/386/386 388/388/388
f 389/389/389 390/390/390 391/391/391
f 389/389/389 391/391/391 392/392/392
f 393/393/393 395/395/395 394/394/394
f 393/393/393 394/394/394 396/396/396
f 397/397/397 398/398/398 399/399/399
f 397/397/397 399/399/399 400/400/400
f 401/401/401 403/403/403 402/402/402
f 401/401/401 402/402/402 404/404/404
f 405/405/405 406/406/406 407/407/407
f 405/405/405 407/407/407 408/408/408
f 409/409/409 410/410/410 411/411/411
f 409/409/409 411/411/411 412/412/412
f 413/413/413 414/414/414 415/415/415
f 413/413/413 415/415/415 416/416/416
f 417/417/417 418/418/418 419/419/419
f 417/417/417 419/419/419 420/420/420
f 421/421/421 422/422/422 423/423/423
f 421/421/421 423/423/423 424/424/424
f 425/425/425 426/426/426 427/427/427
f 425/425/425 427/427/427 428/428/428
f 429/429/429 430/430/430 431/431/431
f 429/429/429 431/431/431 432/432/432
f 433/433/433 434/434/434 435/435/435
f 433/433/433 435/435/435 436/436/436
f 437/437/437 438/438/438 439/439/439
f 437/437/437 439/439/439 440/440/440
f 441/441/441 442/442/442 443/443/443
f 441/441/441 443/443/443 444/444/444
f 445/445/445 446/446/446 447/447/447
f 445/445/445 447/447/447 448/448/448
f 449/449/449 450/450/450 451/451/451
f 449/449/449 451/451/451 452/452/452
f 453/453/453 454/454/454 455/455/455
f 453/453/453 455/455/455 456/456/456
f 457/457/457 458/458/458 459/459/459
f 457/457/457 459/459/459 460/460/460
f 461/461/461 462/462/462 463/463/463
f 461/461/461 463/463/463 464/464/464
f 465/465/465 466/466/466 467/467/467
f 465/465/465 467/467/467 468/468/468
f 469/469/469 470/470/470 471/471/471
f 469/469/469 471/471/471 472/472/472
f 473/473/473 474/474/474 475/475/475
f 473/473/473 475/475/475 476/476/476
f 477/477/477 478/478/478 479/479/479
f 477/477/477 479/479/479 480/480/480
f 481/481/481 482/482/482 483/483/483
f 481/481/481 483/483/483 484/484/484
f 485/485/485 486/486/486 487/487/487
f 485/485/485 487/487/487 488/488/488
f 489/489/489 490/490/490 491/491/491
f 489/489/489 491/491/491 492/492/492
f 493/493/493 494/494/494 495/495/495
f 493/493/493 495/495/495 496/496/496
f 497/497/497 498/498/498 499/499/499
f 497/497/497 499/499/499 500/500/500
f 501/501/501 502/502/502 503/503/503
f 501/501/501 503/503/503 504/504/504
f 505/505/505 506/506/506 507/507/507
f 505/505/505 507/507/507 508/508/508
f 509/509/509 510/510/510 511/511/511
f 509/509/509 511/511/511 512/512/512
f 513/513/513 514/514/514 515/515/515
f 513/513/513 515/515/515 516/516/516
f 517/517/517 518/518/518 519/519/519
f 517/517/517 519/519/519 520/520/520
f 521/521/521 522/522/522 523/523/523
f 521/521/521 523/523/523 524/524/524
f 525/525/525 526/526/526 527/527/527
f 525/525/525 527/527/527 528/528/528
f 529/529/529 530/530/530 531/531/531
f 529/529/529 531/531/531 532/532/532
f 533/533/533 534/534/534 535/535/535
f 533/533/533 535/535/535 536/536/536
o blade
v 0.362196 0.320718 0.509777
v 0.462435 0.400218 0.500000
v 0.369109 0.313805 0.500000
v 0.452066 0.410587 0.509777
v 0.410587 0.452066 0.509777
v 0.313805 0.369109 0.500000
v 0.400218 0.462435 0.500000
v 0.320718 0.362196 0.509777
v 0.672419 0.646495 0.509777
v 0.721675 0.721675 0.500000
v 0.678900 0.640014 0.500000
v 0.700936 0.700936 0.509777
v 0.341457 0.341457 0.509777
v 0.369109 0.313805 0.500000
v 0.341457 0.341457 0.500000
v 0.362196 0.320718 0.509777
v 0.362196 0.320718 0.509777
v 0.431326 0.431326 0.509777
v 0.452066 0.410587 0.509777
v 0.341457 0.341457 0.509777
v 0.341457 0.341457 0.490223
v 0.452066 0.410587 0.490223
v 0.431326 0.431326 0.490223
v 0.362196 0.320718 0.490223
v 0.320718 0.362196 0.490223
v 0.431326 0.431326 0.490223
v 0.410587 0.452066 0.490223
v 0.341457 0.341457 0.490223
v 0.320718 0.362196 0.509777
v 0.341457 0.341457 0.500000
v 0.313805 0.369109 0.500000
v 0.341457 0.341457 0.509777
v 0.341457 0.341457 0.509777
v 0.410587 0.452066 0.509777
v 0.431326 0.431326 0.509777
v 0.320718 0.362196 0.509777
v 0.700936 0.700936 0.509777
v 0.640014 0.678900 0.500000
v 0.721675 0.721675 0.500000
v 0.646495 0.672419 0.509777
v 0.700936 0.700936 0.490223
v 0.611066 0.611066 0.490223
v 0.592919 0.629213 0.490223
v 0.646495 0.672419 0.490223
v 0.611066 0.611066 0.490223
v 0.521196 0.521196 0.490223
v 0.500457 0.541935 0.490223
v 0.592919 0.629213 0.490223
v 0.521196 0.521196 0.490223
v 0.431326 0.431326 0.490223
v 0.410587 0.452066 0.490223
v 0.500457 0.541935 0.490223
v 0.646495 0.672419 0.509777
v 0.583846 0.638286 0.500000
v 0.640014 0.678900 0.500000
v 0.592919 0.629213 0.509777
v 0.592919 0.629213 0.509777
v 0.490087 0.552305 0.500000
v 0.583846 0.638286 0.500000
v 0.500457 0.541935 0.509777
v 0.500457 0.541935 0.509777
v 0.400218 0.462435 0.500000
v 0.490087 0.552305 0.500000
v 0.410587 0.452066 0.509777
v 0.646495 0.672419 0.509777
v 0.592919 0.629213 0.509777
v 0.611066 0.611066 0.509777
v 0.700936 0.700936 0.509777
v 0.592919 0.629213 0.509777
v 0.500457 0.541935 0.509777
v 0.521196 0.521196 0.509777
v 0.611066 0.611066 0.509777
v 0.500457 0.541935 0.509777
v 0.410587 0.452066 0.509777
v 0.431326 0.431326 0.509777
v 0.521196 0.521196 0.509777
v 0.700936 0.700936 0.509777
v 0.611066 0.611066 0.509777
v 0.629213 0.592919 0.509777
v 0.672419 0.646495 0.509777
v 0.611066 0.611066 0.509777
v 0.521196 0.521196 0.509777
v 0.541935 0.500457 0.509777
v 0.629213 0.592919 0.509777
v 0.521196 0.521196 0.509777
v 0.431326 0.431326 0.509777
v 0.452066 0.410587 0.509777
v 0.541935 0.500457 0.509777
v 0.629213 0.592919 0.509777
v 0.678900 0.640014 0.500000
v 0.638286 0.583846 0.500000
v 0.672419 0.646495 0.509777
v 0.541935 0.500457 0.509777
v 0.638286 0.583846 0.500000
v 0.552305 0.490087 0.500000
v 0.629213 0.592919 0.509777
v 0.452066 0.410587 0.509777
v 0.552305 0.490087 0.500000
v 0.462435 0.400218 0.500000
v 0.541935 0.500457 0.509777
v 0.672419 0.646495 0.490223
v 0.629213 0.592919 0.490223
v 0.611066 0.611066 0.490223
v 0.700936 0.700936 0.490223
v 0.629213 0.592919 0.490223
v 0.541935 0.500457 0.490223
v 0.521196 0.521196 0.490223
v 0.611066 0.611066 0.490223
v 0.541935 0.500457 0.490223
v 0.452066 0.410587 0.490223
v 0.431326 0.431326 0.490223
v 0.521196 0.521196 0.490223
v 0.592919 0.629213 0.490223
v 0.583846 0.638286 0.500000
v 0.640014 0.678900 0.500000
v 0.646495 0.672419 0.490223
v 0.646495 0.672419 0.490223
v 0.640014 0.678900 0.500000
v 0.721675 0.721675 0.500000
v 0.700936 0.700936 0.490223
v 0.700936 0.700936 0.490223
v 0.721675 0.721675 0.500000
v 0.678900 0.640014 0.500000
v 0.672419 0.646495 0.490223
v 0.672419 0.646495 0.490223
v 0.678900 0.640014 0.500000
v 0.638286 0.583846 0.500000
v 0.629213 0.592919 0.490223
v 0.629213 0.592919 0.490223
v 0.638286 0.583846 0.500000
v 0.552305 0.490087 0.500000
v 0.541935 0.500457 0.490223
v 0.541935 0.500457 0.490223
v 0.552305 0.490087 0.500000
v 0.462435 0.400218 0.500000
v 0.452066 0.410587 0.490223
v 0.452066 0.410587 0.490223
v 0.462435 0.400218 0.500000
v 0.369109 0.313805 0.500000
v 0.362196 0.320718 0.490223
v 0.362196 0.320718 0.490223
v 0.369109 0.313805 0.500000
v 0.341457 0.341457 0.500000
v 0.341457 0.341457 0.490223
v 0.341457 0.341457 0.490223
v 0.341457 0.341457 0.500000
v 0.313805 0.369109 0.500000
v 0.320718 0.362196 0.490223
v 0.320718 0.362196 0.490223
v 0.313805 0.369109 0.500000
v 0.400218 0.462435 0.500000
v 0.410587 0.452066 0.490223
v 0.410587 0.452066 0.490223
v 0.400218 0.462435 0.500000
v 0.490087 0.552305 0.500000
v 0.500457 0.541935 0.490223
v 0.500457 0.541935 0.490223
v 0.490087 0.552305 0.500000
v 0.583846 0.638286 0.500000
v 0.592919 0.629213 0.490223
vt 0.718571 0.014198
vt 0.663342 0.130649
vt 0.681751 0.014198
vt 0.718571 0.130649
vt 0.939486 0.130649
vt 0.976306 0.014198
vt 0.994715 0.130649
vt 0.939486 0.014198
vt 0.331784 0.919427
vt 0.497503 1.000047
vt 0.497503 0.919427
vt 0.331784 0.973173
vt 0.497342 0.506640
vt 0.350065 0.260241
vt 0.497342 0.260241
vt 0.386884 0.506640
vt 0.718571 0.014198
vt 0.829029 0.130649
vt 0.718571 0.130649
vt 0.829029 0.014198
vt 0.165655 0.014198
vt 0.055197 0.130649
vt 0.165655 0.130649
vt 0.055197 0.014198
vt 0.276113 0.014198
vt 0.165655 0.130649
vt 0.276113 0.130649
vt 0.165655 0.014198
vt 0.607800 0.506640
vt 0.497342 0.260241
vt 0.644619 0.260241
vt 0.497342 0.506640
vt 0.829029 0.014198
vt 0.939486 0.130649
vt 0.829029 0.130649
vt 0.939486 0.014198
vt 0.663471 0.973173
vt 0.829190 0.919427
vt 0.829190 1.000047
vt 0.663471 0.919427
vt 0.165655 0.480004
vt 0.165655 0.363553
vt 0.262306 0.363553
vt 0.234691 0.426257
vt 0.165655 0.363553
vt 0.165655 0.247101
vt 0.276113 0.247101
vt 0.262306 0.363553
vt 0.165655 0.247101
vt 0.165655 0.130649
vt 0.276113 0.130649
vt 0.276113 0.247101
vt 0.663471 0.919427
vt 0.829190 0.856722
vt 0.829190 0.919427
vt 0.663471 0.856722
vt 0.925679 0.363553
vt 0.994715 0.247101
vt 0.974004 0.363553
vt 0.939486 0.247101
vt 0.939486 0.247101
vt 0.994715 0.130649
vt 0.994715 0.247101
vt 0.939486 0.130649
vt 0.898065 0.426257
vt 0.925679 0.363553
vt 0.829029 0.363553
vt 0.829029 0.480004
vt 0.925679 0.363553
vt 0.939486 0.247101
vt 0.829029 0.247101
vt 0.829029 0.363553
vt 0.939486 0.247101
vt 0.939486 0.130649
vt 0.829029 0.130649
vt 0.829029 0.247101
vt 0.829029 0.480004
vt 0.829029 0.363553
vt 0.732378 0.363553
vt 0.759992 0.426257
vt 0.829029 0.363553
vt 0.829029 0.247101
vt 0.718571 0.247101
vt 0.732378 0.363553
vt 0.829029 0.247101
vt 0.829029 0.130649
vt 0.718571 0.130649
vt 0.718571 0.247101
vt 0.732378 0.363553
vt 0.725474 0.426257
vt 0.684053 0.363553
vt 0.759992 0.426257
vt 0.718571 0.247101
vt 0.684053 0.363553
vt 0.663342 0.247101
vt 0.732378 0.363553
vt 0.718571 0.130649
vt 0.663342 0.247101
vt 0.663342 0.130649
vt 0.718571 0.247101
vt 0.096619 0.426257
vt 0.069004 0.363553
vt 0.165655 0.363553
vt 0.165655 0.480004
vt 0.069004 0.363553
vt 0.055197 0.247101
vt 0.165655 0.247101
vt 0.165655 0.363553
vt 0.055197 0.247101
vt 0.055197 0.130649
vt 0.165655 0.130649
vt 0.165655 0.247101
vt 0.262306 0.363553
vt 0.310631 0.363553
vt 0.269209 0.426257
vt 0.234691 0.426257
vt 0.994909 0.919427
vt 0.829190 0.919427
vt 0.829190 1.000047
vt 0.994909 0.973173
vt 0.663222 0.973173
vt 0.497503 1.000047
vt 0.497503 0.919427
vt 0.663222 0.919427
vt 0.663222 0.919427
vt 0.497503 0.919427
vt 0.497503 0.856722
vt 0.663222 0.856722
vt 0.069004 0.363553
vt 0.020679 0.363553
vt -0.000032 0.247101
vt 0.055197 0.247101
vt 0.055197 0.247101
vt -0.000032 0.247101
vt -0.000032 0.130649
vt 0.055197 0.130649
vt 0.055197 0.130649
vt -0.000032 0.130649
vt 0.018378 0.014198
vt 0.055197 0.014198
vt 0.386884 0.013841
vt 0.350065 0.260241
vt 0.497342 0.260241
vt 0.497342 0.013841
vt 0.497342 0.013841
vt 0.497342 0.260241
vt 0.644619 0.260241
vt 0.607800 0.013841
vt 0.276113 0.014198
vt 0.312932 0.014198
vt 0.331342 0.130649
vt 0.276113 0.130649
vt 0.276113 0.130649
vt 0.331342 0.130649
vt 0.331342 0.247101
vt 0.276113 0.247101
vt 0.276113 0.247101
vt 0.331342 0.247101
vt 0.310631 0.363553
vt 0.262306 0.363553
vn 0.480592 -0.519039 0.706845
vn 0.480592 -0.519039 0.706845
vn 0.480592 -0.519039 0.706845
vn 0.480592 -0.519039 0.706845
vn -0.407225 0.377061 0.831861
vn -0.407225 0.377061 0.831861
vn -0.407225 0.377061 0.831861
vn -0.407225 0.377061 0.831861
vn 0.660129 -0.345782 0.666831
vn 0.660129 -0.345782 0.666831
vn 0.660129 -0.345782 0.666831
vn 0.660129 -0.345782 0.666831
vn -0.707107 -0.707107 0.000000
vn -0.707107 -0.707107 0.000000
vn -0.707107 -0.707107 0.000000
vn -0.707107 -0.707107 0.000000
vn 0.000000 0.000000 1.000000
vn 0.000000 0.000000 1.000000
vn 0.000000 0.000000 1.000000
vn 0.000000 0.000000 1.000000
vn 0.000000 0.000000 -1.000000
vn 0.000000 0.000000 -1.000000
vn 0.000000 0.000000 -1.000000
vn 0.000000 0.000000 -1.000000
vn 0.000000 0.000000 -1.000000
vn 0.000000 0.000000 -1.000000
vn 0.000000 0.000000 -1.000000
vn 0.000000 0.000000 -1.000000
vn -0.707107 -0.707107 0.000000
vn -0.707107 -0.707107 0.000000
vn -0.707107 -0.707107 0.000000
vn -0.707107 -0.707107 0.000000
vn 0.000000 0.000000 1.000000
vn 0.000000 0.000000 1.000000
vn 0.000000 0.000000 1.000000
vn 0.000000 0.000000 1.000000
vn -0.345782 0.660129 0.666831
vn -0.345782 0.660129 0.666831
vn -0.345782 0.660129 0.666831
vn -0.345782 0.660129 0.666831
vn 0.000000 0.000000 -1.000000
vn 0.000000 0.000000 -1.000000
vn 0.000000 0.000000 -1.000000
vn 0.000000 0.000000 -1.000000
vn 0.000000 0.000000 -1.000000
vn 0.000000 0.000000 -1.000000
vn 0.000000 0.000000 -1.000000
vn 0.000000 0.000000 -1.000000
vn 0.000000 0.000000 -1.000000
vn 0.000000 0.000000 -1.000000
vn 0.000000 0.000000 -1.000000
vn 0.000000 0.000000 -1.000000
vn -0.430009 0.594693 0.679288
vn -0.430009 0.594693 0.679288
vn -0.430009 0.594693 0.679288
vn -0.430009 0.594693 0.679288
vn -0.409854 0.446926 0.795158
vn -0.409854 0.446926 0.795158
vn -0.409854 0.446926 0.795158
vn -0.409854 0.446926 0.795158
vn -0.392232 0.392232 0.832050
vn -0.392232 0.392232 0.832050
vn -0.392232 0.392232 0.832050
vn -0.392232 0.392232 0.832050
vn 0.000000 0.000000 1.000000
vn 0.000000 0.000000 1.000000
vn 0.000000 0.000000 1.000000
vn 0.000000 0.000000 1.000000
vn 0.000000 0.000000 1.000000
vn 0.000000 0.000000 1.000000
vn 0.000000 0.000000 1.000000
vn 0.000000 0.000000 1.000000
vn 0.000000 0.000000 1.000000
vn 0.000000 0.000000 1.000000
vn 0.000000 0.000000 1.000000
vn 0.000000 0.000000 1.000000
vn 0.000000 0.000000 1.000000
vn 0.000000 0.000000 1.000000
vn 0.000000 0.000000 1.000000
vn 0.000000 0.000000 1.000000
vn 0.000000 0.000000 1.000000
vn 0.000000 0.000000 1.000000
vn 0.000000 0.000000 1.000000
vn 0.000000 0.000000 1.000000
vn 0.000000 0.000000 1.000000
vn 0.000000 0.000000 1.000000
vn 0.000000 0.000000 1.000000
vn 0.000000 0.000000 1.000000
vn 0.495067 -0.357971 0.791685
vn 0.495067 -0.357971 0.791685
vn 0.495067 -0.357971 0.791685
vn 0.495067 -0.357971 0.791685
vn 0.409086 -0.375153 0.831811
vn 0.409086 -0.375153 0.831811
vn 0.409086 -0.375153 0.831811
vn 0.409086 -0.375153 0.831811
vn 0.392232 -0.392232 0.832050
vn 0.392232 -0.392232 0.832050
vn 0.392232 -0.392232 0.832050
vn 0.392232 -0.392232 0.832050
vn 0.000000 0.000000 -1.000000
vn 0.000000 0.000000 -1.000000
vn 0.000000 0.000000 -1.000000
vn 0.000000 0.000000 -1.000000
vn 0.000000 0.000000 -1.000000
vn 0.000000 0.000000 -1.000000
vn 0.000000 0.000000 -1.000000
vn 0.000000 0.000000 -1.000000
vn 0.000000 0.000000 -1.000000
vn 0.000000 0.000000 -1.000000
vn 0.000000 0.000000 -1.000000
vn 0.000000 0.000000 -1.000000
vn -0.357971 0.495067 -0.791685
vn -0.357971 0.495067 -0.791685
vn -0.357971 0.495067 -0.791685
vn -0.357971 0.495067 -0.791685
vn -0.345782 0.660129 -0.666831
vn -0.345782 0.660129 -0.666831
vn -0.345782 0.660129 -0.666831
vn -0.345782 0.660129 -0.666831
vn 0.660129 -0.345782 -0.666831
vn 0.660129 -0.345782 -0.666831
vn 0.660129 -0.345782 -0.666831
vn 0.660129 -0.345782 -0.666831
vn 0.594693 -0.430009 -0.679288
vn 0.594693 -0.430009 -0.679288
vn 0.594693 -0.430009 -0.679288
vn 0.594693 -0.430009 -0.679288
vn 0.446926 -0.409854 -0.795158
vn 0.446926 -0.409854 -0.795158
vn 0.446926 -0.409854 -0.795158
vn 0.446926 -0.409854 -0.795158
vn 0.392232 -0.392232 -0.832050
vn 0.392232 -0.392232 -0.832050
vn 0.392232 -0.392232 -0.832050
vn 0.392232 -0.392232 -0.832050
vn 0.377061 -0.407225 -0.831861
vn 0.377061 -0.407225 -0.831861
vn 0.377061 -0.407225 -0.831861
vn 0.377061 -0.407225 -0.831861
vn -0.707107 -0.707107 0.000000
vn -0.707107 -0.707107 0.000000
vn -0.707107 -0.707107 0.000000
vn -0.707107 -0.707107 0.000000
vn -0.707107 -0.707107 0.000000
vn -0.707107 -0.707107 0.000000
vn -0.707107 -0.707107 0.000000
vn -0.707107 -0.707107 0.000000
vn -0.519039 0.480592 -0.706845
vn -0.519039 0.480592 -0.706845
vn -0.519039 0.480592 -0.706845
vn -0.519039 0.480592 -0.706845
vn -0.392232 0.392232 -0.832050
vn -0.392232 0.392232 -0.832050
vn -0.392232 0.392232 -0.832050
vn -0.392232 0.392232 -0.832050
vn -0.375153 0.409086 -0.831811
vn -0.375153 0.409086 -0.831811
vn -0.375153 0.409086 -0.831811
vn -0.375153 0.409086 -0.831811
usemtl m1
f 537/537/537 539/539/539 538/538/538
f 537/537/537 538/538/538 540/540/540
f 541/541/541 543/543/543 542/542/542
f 541/541/541 542/542/542 544/544/544
f 545/545/545 547/547/547 546/546/546
f 545/545/545 546/546/546 548/548/548
f 549/549/549 551/551/551 550/550/550
f 549/549/549 550/550/550 552/552/552
f 553/553/553 555/555/555 554/554/554
f 553/553/553 554/554/554 556/556/556
f 557/557/557 559/559/559 558/558/558
f 557/557/557 558/558/558 560/560/560
f 561/561/561 563/563/563 562/562/562
f 561/561/561 562/562/562 564/564/564
f 565/565/565 567/567/567 566/566/566
f 565/565/565 566/566/566 568/568/568
f 569/569/569 571/571/571 570/570/570
f 569/569/569 570/570/570 572/572/572
f 573/573/573 575/575/575 574/574/574
f 573/573/573 574/574/574 576/576/576
f 577/577/577 578/578/578 579/579/579
f 577/577/577 579/579/579 580/580/580
f 581/581/581 582/582/582 583/583/583
f 581/581/581 583/583/583 584/584/584
f 585/585/585 586/586/586 587/587/587
f 585/585/585 587/587/587 588/588/588
f 589/589/589 591/591/591 590/590/590
f 589/589/589 590/590/590 592/592/592
f 593/593/593 595/595/595 594/594/594
f 593/593/593 594/594/594 596/596/596
f 597/597/597 599/599/599 598/598/598
f 597/597/597 598/598/598 600/600/600
f 601/601/601 602/602/602 603/603/603
f 601/601/601 603/603/603 604/604/604
f 605/605/605 606/606/606 607/607/607
f 605/605/605 607/607/607 608/608/608
f 609/609/609 610/610/610 611/611/611
f 609/609/609 611/611/611 612/612/612
f 613/613/613 614/614/614 615/615/615
f 613/613/613 615/615/615 616/616/616
f 617/617/617 618/618/618 619/619/619
f 617/617/617 619/619/619 620/620/620
f 621/621/621 622/622/622 623/623/623
f 621/621/621 623/623/623 624/624/624
f 625/625/625 627/627/627 626/626/626
f 625/625/625 626/626/626 628/628/628
f 629/629/629 631/631/631 630/630/630
f 629/629/629 630/630/630 632/632/632
f 633/633/633 635/635/635 634/634/634
f 633/633/633 634/634/634 636/636/636
f 637/637/637 638/638/638 639/639/639
f 637/637/637 639/639/639 640/640/640
f 641/641/641 642/642/642 643/643/643
f 641/641/641 643/643/643 644/644/644
f 645/645/645 646/646/646 647/647/647
f 645/645/645 647/647/647 648/648/648
f 649/649/649 650/650/650 651/651/651
f 649/649/649 651/651/651 652/652/652
f 653/653/653 654/654/654 655/655/655
f 653/653/653 655/655/655 656/656/656
f 657/657/657 658/658/658 659/659/659
f 657/657/657 659/659/659 660/660/660
f 661/661/661 662/662/662 663/663/663
f 661/661/661 663/663/663 664/664/664
f 665/665/665 666/666/666 667/667/667
f 665/665/665 667/667/667 668/668/668
f 669/669/669 670/670/670 671/671/671
f 669/669/669 671/671/671 672/672/672
f 673/673/673 674/674/674 675/675/675
f 673/673/673 675/675/675 676/676/676
f 677/677/677 678/678/678 679/679/679
f 677/677/677 679/679/679 680/680/680
f 681/681/681 682/682/682 683/683/683
f 681/681/681 683/683/683 684/684/684
f 685/685/685 686/686/686 687/687/687
f 685/685/685 687/687/687 688/688/688
f 689/689/689 690/690/690 691/691/691
f 689/689/689 691/691/691 692/692/692
f 693/693/693 694/694/694 695/695/695
f 693/693/693 695/695/695 696/696/696
